<svg xmlns="http://www.w3.org/2000/svg" version="1.1" xmlns:xlink="http://www.w3.org/1999/xlink" xmlns:svgjs="http://svgjs.dev/svgjs" width="1440" height="560" preserveAspectRatio="none" viewBox="0 0 1440 560"><g mask="url(&quot;#SvgjsMask1550&quot;)" fill="none"><rect width="1440" height="560" x="0" y="0" fill="rgba(255, 255, 255, 1)"></rect><use xlink:href="#SvgjsG1555" transform="translate(0, 0)" fill="rgba(245, 245, 245, 1)"></use><use xlink:href="#SvgjsG1555" transform="translate(1110, 0)" fill="rgba(245, 245, 245, 1)"></use></g><defs><mask id="SvgjsMask1550"><rect width="1440" height="560" fill="#ffffff"></rect></mask><g id="SvgjsG1551"><path d="M15.233 9.431c0.295 0 0.569-0.239 0.61-0.532 0 0 0.056-0.411 0.056-0.899s-0.056-0.899-0.056-0.899c-0.041-0.292-0.315-0.531-0.61-0.53h-1.524c-0.295 0-0.602-0.188-0.681-0.418s-0.188-0.967 0.021-1.176l1.078-1.077c0.209-0.209 0.225-0.565 0.036-0.792l-1.268-1.268c-0.227-0.189-0.583-0.173-0.792 0.036l-1.078 1.077c-0.208 0.209-0.556 0.293-0.772 0.187s-0.822-0.552-0.821-0.847V0.767c0-0.295-0.239-0.569-0.531-0.61 0 0-0.411-0.057-0.9-0.056s-0.899 0.057-0.899 0.056c-0.293 0.04-0.532 0.315-0.532 0.61v1.524c0 0.295-0.188 0.601-0.418 0.681s-0.967 0.188-1.176-0.021l-1.078-1.078C3.689 1.665 3.333 1.649 3.107 1.837l-1.268 1.268c-0.189 0.227-0.173 0.583 0.036 0.792l1.077 1.078c0.209 0.209 0.293 0.556 0.187 0.772s-0.552 0.822-0.847 0.822H0.767c-0.295 0-0.569 0.239-0.61 0.531 0 0-0.057 0.411-0.056 0.899s0.057 0.899 0.056 0.9c0.04 0.293 0.315 0.532 0.61 0.532h1.525c0.295 0 0.601 0.188 0.681 0.417 0.079 0.23 0.188 0.967-0.02 1.176l-1.078 1.077C1.667 12.311 1.651 12.667 1.84 12.893l1.267 1.268c0.227 0.189 0.583 0.173 0.792-0.036l1.077-1.077c0.209-0.208 0.556-0.292 0.772-0.187s0.821 0.553 0.822 0.848v1.524c0 0.295 0.239 0.569 0.532 0.61 0 0 0.411 0.057 0.899 0.057s0.899-0.056 0.899-0.057c0.293-0.04 0.531-0.315 0.532-0.609v-1.524c0-0.295 0.188-0.602 0.418-0.681 0.23-0.079 0.967-0.188 1.176 0.021l1.077 1.077c0.209 0.209 0.565 0.225 0.792 0.036l1.268-1.267c0.189-0.227 0.173-0.583-0.036-0.792l-1.078-1.077c-0.209-0.209-0.293-0.557-0.186-0.773 0.106-0.216 0.552-0.822 0.847-0.822h1.525zM8 10.892c-1.597 0-2.891-1.294-2.891-2.892 0-1.596 1.295-2.891 2.891-2.891S10.892 6.404 10.892 8 9.597 10.892 8 10.892z"></path></g><g id="SvgjsG1552"><path d="M3.755 2.315h2.494v11.128h-2.494zM13.507 0.537H16v11.261h-2.493z"></path><path d="M4.451 5.556l-0.696-3.24L16 0v3.167z"></path><path d="M0 13.443a3.124 2.606 0 1 0 6.249 0 3.124 2.606 0 1 0-6.249 0"></path><path d="M9.751 11.798a3.124 2.606 0 1 0 6.249 0 3.124 2.606 0 1 0-6.249 0"></path></g><g id="SvgjsG1553"><path d="M3.044 12.188V8.93c0-2.836 2.475-5.244 5.463-5.245 3.022-0.004 5.465 2.352 5.465 5.245v3.258h1.351V8.93C15.332 5.276 12.27 2.325 8.51 2.325 4.777 2.325 1.689 5.333 1.689 8.93v3.258h1.355z"></path><path d="M5.463 14.702l-1.781 0.006V9.593h1.785c0.921 2.372 0 5.111 0 5.111m6.049-5.109H13.298V14.702l-1.783 0.006c-0.921-2.373 0-5.113 0-5.113"></path></g><g id="SvgjsG1554"><path d="M14.232 5.485L6.361 15.96l1.815-7.368-4.222 0.071L5.679 0h5.121L8.744 5.489z"></path></g><g id="SvgjsG1555"><use xlink:href="#SvgjsG1551" transform="translate(0, 0) scale(3)" fill="rgba(245, 245, 245, 1)"></use><use xlink:href="#SvgjsG1552" transform="translate(0, 111) scale(3)" fill="rgba(245, 245, 245, 1)"></use><use xlink:href="#SvgjsG1553" transform="translate(0, 222) scale(3)" fill="rgba(245, 245, 245, 1)"></use><use xlink:href="#SvgjsG1554" transform="translate(0, 333) scale(3)" fill="rgba(245, 245, 245, 1)"></use><use xlink:href="#SvgjsG1551" transform="translate(0, 444) scale(3)" fill="rgba(245, 245, 245, 1)"></use><use xlink:href="#SvgjsG1552" transform="translate(0, 555) scale(3)" fill="rgba(245, 245, 245, 1)"></use><use xlink:href="#SvgjsG1552" transform="translate(111, 0) scale(3)" fill="rgba(245, 245, 245, 1)"></use><use xlink:href="#SvgjsG1553" transform="translate(111, 111) scale(3)" fill="rgba(245, 245, 245, 1)"></use><use xlink:href="#SvgjsG1554" transform="translate(111, 222) scale(3)" fill="rgba(245, 245, 245, 1)"></use><use xlink:href="#SvgjsG1551" transform="translate(111, 333) scale(3)" fill="rgba(245, 245, 245, 1)"></use><use xlink:href="#SvgjsG1552" transform="translate(111, 444) scale(3)" fill="rgba(245, 245, 245, 1)"></use><use xlink:href="#SvgjsG1553" transform="translate(111, 555) scale(3)" fill="rgba(245, 245, 245, 1)"></use><use xlink:href="#SvgjsG1553" transform="translate(222, 0) scale(3)" fill="rgba(245, 245, 245, 1)"></use><use xlink:href="#SvgjsG1554" transform="translate(222, 111) scale(3)" fill="rgba(245, 245, 245, 1)"></use><use xlink:href="#SvgjsG1551" transform="translate(222, 222) scale(3)" fill="rgba(245, 245, 245, 1)"></use><use xlink:href="#SvgjsG1552" transform="translate(222, 333) scale(3)" fill="rgba(245, 245, 245, 1)"></use><use xlink:href="#SvgjsG1553" transform="translate(222, 444) scale(3)" fill="rgba(245, 245, 245, 1)"></use><use xlink:href="#SvgjsG1554" transform="translate(222, 555) scale(3)" fill="rgba(245, 245, 245, 1)"></use><use xlink:href="#SvgjsG1554" transform="translate(333, 0) scale(3)" fill="rgba(245, 245, 245, 1)"></use><use xlink:href="#SvgjsG1551" transform="translate(333, 111) scale(3)" fill="rgba(245, 245, 245, 1)"></use><use xlink:href="#SvgjsG1552" transform="translate(333, 222) scale(3)" fill="rgba(245, 245, 245, 1)"></use><use xlink:href="#SvgjsG1553" transform="translate(333, 333) scale(3)" fill="rgba(245, 245, 245, 1)"></use><use xlink:href="#SvgjsG1554" transform="translate(333, 444) scale(3)" fill="rgba(245, 245, 245, 1)"></use><use xlink:href="#SvgjsG1551" transform="translate(333, 555) scale(3)" fill="rgba(245, 245, 245, 1)"></use><use xlink:href="#SvgjsG1551" transform="translate(444, 0) scale(3)" fill="rgba(245, 245, 245, 1)"></use><use xlink:href="#SvgjsG1552" transform="translate(444, 111) scale(3)" fill="rgba(245, 245, 245, 1)"></use><use xlink:href="#SvgjsG1553" transform="translate(444, 222) scale(3)" fill="rgba(245, 245, 245, 1)"></use><use xlink:href="#SvgjsG1554" transform="translate(444, 333) scale(3)" fill="rgba(245, 245, 245, 1)"></use><use xlink:href="#SvgjsG1551" transform="translate(444, 444) scale(3)" fill="rgba(245, 245, 245, 1)"></use><use xlink:href="#SvgjsG1552" transform="translate(444, 555) scale(3)" fill="rgba(245, 245, 245, 1)"></use><use xlink:href="#SvgjsG1552" transform="translate(555, 0) scale(3)" fill="rgba(245, 245, 245, 1)"></use><use xlink:href="#SvgjsG1553" transform="translate(555, 111) scale(3)" fill="rgba(245, 245, 245, 1)"></use><use xlink:href="#SvgjsG1554" transform="translate(555, 222) scale(3)" fill="rgba(245, 245, 245, 1)"></use><use xlink:href="#SvgjsG1551" transform="translate(555, 333) scale(3)" fill="rgba(245, 245, 245, 1)"></use><use xlink:href="#SvgjsG1552" transform="translate(555, 444) scale(3)" fill="rgba(245, 245, 245, 1)"></use><use xlink:href="#SvgjsG1553" transform="translate(555, 555) scale(3)" fill="rgba(245, 245, 245, 1)"></use><use xlink:href="#SvgjsG1553" transform="translate(666, 0) scale(3)" fill="rgba(245, 245, 245, 1)"></use><use xlink:href="#SvgjsG1554" transform="translate(666, 111) scale(3)" fill="rgba(245, 245, 245, 1)"></use><use xlink:href="#SvgjsG1551" transform="translate(666, 222) scale(3)" fill="rgba(245, 245, 245, 1)"></use><use xlink:href="#SvgjsG1552" transform="translate(666, 333) scale(3)" fill="rgba(245, 245, 245, 1)"></use><use xlink:href="#SvgjsG1553" transform="translate(666, 444) scale(3)" fill="rgba(245, 245, 245, 1)"></use><use xlink:href="#SvgjsG1554" transform="translate(666, 555) scale(3)" fill="rgba(245, 245, 245, 1)"></use><use xlink:href="#SvgjsG1554" transform="translate(777, 0) scale(3)" fill="rgba(245, 245, 245, 1)"></use><use xlink:href="#SvgjsG1551" transform="translate(777, 111) scale(3)" fill="rgba(245, 245, 245, 1)"></use><use xlink:href="#SvgjsG1552" transform="translate(777, 222) scale(3)" fill="rgba(245, 245, 245, 1)"></use><use xlink:href="#SvgjsG1553" transform="translate(777, 333) scale(3)" fill="rgba(245, 245, 245, 1)"></use><use xlink:href="#SvgjsG1554" transform="translate(777, 444) scale(3)" fill="rgba(245, 245, 245, 1)"></use><use xlink:href="#SvgjsG1551" transform="translate(777, 555) scale(3)" fill="rgba(245, 245, 245, 1)"></use><use xlink:href="#SvgjsG1551" transform="translate(888, 0) scale(3)" fill="rgba(245, 245, 245, 1)"></use><use xlink:href="#SvgjsG1552" transform="translate(888, 111) scale(3)" fill="rgba(245, 245, 245, 1)"></use><use xlink:href="#SvgjsG1553" transform="translate(888, 222) scale(3)" fill="rgba(245, 245, 245, 1)"></use><use xlink:href="#SvgjsG1554" transform="translate(888, 333) scale(3)" fill="rgba(245, 245, 245, 1)"></use><use xlink:href="#SvgjsG1551" transform="translate(888, 444) scale(3)" fill="rgba(245, 245, 245, 1)"></use><use xlink:href="#SvgjsG1552" transform="translate(888, 555) scale(3)" fill="rgba(245, 245, 245, 1)"></use><use xlink:href="#SvgjsG1552" transform="translate(999, 0) scale(3)" fill="rgba(245, 245, 245, 1)"></use><use xlink:href="#SvgjsG1553" transform="translate(999, 111) scale(3)" fill="rgba(245, 245, 245, 1)"></use><use xlink:href="#SvgjsG1554" transform="translate(999, 222) scale(3)" fill="rgba(245, 245, 245, 1)"></use><use xlink:href="#SvgjsG1551" transform="translate(999, 333) scale(3)" fill="rgba(245, 245, 245, 1)"></use><use xlink:href="#SvgjsG1552" transform="translate(999, 444) scale(3)" fill="rgba(245, 245, 245, 1)"></use><use xlink:href="#SvgjsG1553" transform="translate(999, 555) scale(3)" fill="rgba(245, 245, 245, 1)"></use></g></defs></svg>
